<?xml version="1.0" ?><svg style="enable-background:new 0 0 48 48;" version="1.1" viewBox="0 0 48 48" xml:space="preserve" xmlns="http://www.w3.org/2000/svg" xmlns:xlink="http://www.w3.org/1999/xlink"><g id="Padding__x26__Artboard"/><g id="Icons"><g><path d="M13.30945,28.69326l-0.34676-4.94724c-0.00259-0.03695-0.00809-0.07364-0.01644-0.10973    l-0.51589-2.22862l-0.14032-0.6062c-0.3028,0.00226-0.70435,0.06293-1.04639,0.32214    c-0.38525,0.2915-0.59668,0.75195-0.62939,1.36816c-0.02979,0.56689-0.07422,1.01221-0.10938,1.36377    c-0.08105,0.81104-0.12207,1.21826,0.21387,1.50684c0.25977,0.22168,0.86719,0.84326,0.90967,1.8125    c0.0625,1.43994,0.32666,2.17529,0.85645,2.3833c0.09229,0.03613,0.18652,0.0542,0.28418,0.0542    c0.185,0,0.38208-0.07294,0.59058-0.20349L13.30945,28.69326z" style="fill:#303030;"/><path d="M37.49512,23.85555c-0.03516-0.35156-0.07959-0.79688-0.10938-1.36377    c-0.03271-0.61621-0.24414-1.07666-0.62939-1.36816c-0.31506-0.23846-0.68353-0.30994-0.97656-0.32153L35.565,21.40743    l-0.85236,2.40212c-0.0227,0.06398-0.03605,0.13091-0.03962,0.19871l-0.23888,4.53254l-0.0365,0.69299    c0.30164,0.24896,0.57806,0.3786,0.83282,0.3786c0.09766,0,0.19238-0.01807,0.28418-0.0542    c0.52979-0.20801,0.79443-0.94287,0.85742-2.3833c0.04199-0.96924,0.64941-1.59082,0.90918-1.81299    C37.61719,25.07382,37.57617,24.66659,37.49512,23.85555z" style="fill:#303030;"/><path d="M35.60742,17.74667l0.28961-1.85994c0.035-0.22478,0.04395-0.45286,0.02668-0.67969    l-0.22893-3.00562c-0.00159-0.02093-0.00412-0.04178-0.00758-0.06248v0c-0.27538-1.65068-1.52555-2.96875-3.15935-3.33099    c-6.52769-1.82193-11.42616-1.5456-16.3522-0.23703c-1.53735,0.29913-2.77016,1.44766-3.17721,2.96002    c0,0-0.81233,2.03708-0.99896,3.69189c-0.06726,0.59637,0.02864,1.19816,0.24411,1.75829l0.31647,0.82268l-0.26434,0.33484    l0.16864,0.75452l0.61475,2.65625l0.10963-1.85486c0.02018-0.34148,0.21274-0.64922,0.51102-0.81669l1.99298-1.11895    c0.24148-0.13558,0.38124-0.39994,0.35731-0.67584l-0.35034-4.03903c-0.00781-0.09082,0.02588-0.18018,0.0918-0.24316    s0.15723-0.09277,0.24756-0.08008l5.32568,0.7251c0.125,0.01709,0.22559,0.11035,0.25244,0.23389    c0.02686,0.12305-0.02637,0.25-0.1333,0.31738c-0.31445,0.19824-1.15332,0.8418-1.25977,1.42969    c-0.03174,0.17676,0.00635,0.32812,0.12012,0.47754c0.18945,0.24854,0.51367,0.54346,0.85742,0.85596    c0.78711,0.71533,1.6792,1.52637,1.63428,2.39014c-0.00049,0.01318-0.00146,0.02686-0.00293,0.04004    c0.42969-0.29443,0.86963-0.69873,1.00488-1.17627c0.1001-0.35352,0.01465-0.70703-0.26074-1.08105    c-0.1123-0.17578-0.97607-1.58984-0.45703-2.40283c0.26416-0.41455,0.80078-0.57178,1.59424-0.46875l0.96924,0.24414    l6.81006-1.36475c0.0957-0.01904,0.19336,0.00879,0.26416,0.0752s0.10498,0.1626,0.09229,0.25879l-0.48787,3.63579    c-0.0311,0.23176,0.05471,0.46386,0.22909,0.61966l1.75392,1.56701c0.11691,0.26122,0.21852,0.48826,0.33543,0.74949v2.25813    l0.38086-1.07312c0.00928-0.02429,0.0094-0.04797,0.02448-0.06903l0.64154-1.80756l0.26312-0.74463L35.60742,17.74667z" style="fill:#303030;"/><path d="M32.07325,17.87175c-0.24868-0.22218-0.37105-0.55319-0.32669-0.88371l0.32169-2.39674    c0.0644-0.47983-0.36277-0.88036-0.83747-0.78525l-5.33878,1.06977c-0.15029-0.00386-0.29497-0.00758-0.44525-0.01143    l-0.84471-0.21489c-0.34082-0.0415-0.81641-0.04688-0.97656,0.20361c-0.24854,0.38916,0.19385,1.3418,0.44678,1.74219    c0.37549,0.5083,0.49463,1.04688,0.34229,1.58398c-0.36768,1.29688-2.23877,2.06299-2.31836,2.09521    c-0.1377,0.05566-0.2998,0-0.37402-0.13232c-0.07324-0.13184-0.03711-0.29834,0.08447-0.3877    c0.27783-0.2041,0.41846-0.41211,0.43018-0.63525c0.03027-0.58008-0.78418-1.32031-1.43896-1.91504    c-0.36426-0.33105-0.7085-0.64404-0.93115-0.93652c-0.21387-0.28076-0.29443-0.6084-0.23242-0.94824    c0.09863-0.54639,0.54248-1.03955,0.92871-1.37695l-3.35945-0.45761c-0.44794-0.06102-0.8368,0.30929-0.79772,0.75968    l0.25848,2.97963c0.03412,0.39338-0.16516,0.77031-0.50947,0.96361l-1.06542,0.59814    c0.00006,0.00073,0.00085,0.00104,0.00092,0.00177l0.58447,9.21533c0.01074,0.16553-0.11475,0.30811-0.28027,0.31836    c-0.00635,0.00049-0.01318,0.00049-0.01953,0.00049c-0.15674,0-0.28906-0.12207-0.29883-0.28076l-0.56635-8.92981    l-0.70905,0.39807l-0.24121,4.08645c-0.00179,0.03027-0.00162,0.06062,0.0005,0.09086l0.85058,12.1347l0.04828,0.83136    l4.80169,4.11164l0.2865,0.24205h3.92798v-0.59961v-1.70898c0-0.16553,0.13428-0.2998,0.2998-0.2998s0.2998,0.13428,0.2998,0.2998    v1.70898v0.59961h4.29752l0.32882-0.28191l4.70167-4.54048l0.07532-0.9071l0.60205-11.42628    c0.00065-0.01236,0.00098-0.02473,0.00098-0.03711v-3.83234c0-0.2008-0.08561-0.39208-0.23535-0.52587L32.07325,17.87175z     M15.64062,31.40048c-0.00635,0.00049-0.01318,0.00049-0.01953,0.00049c-0.15674,0-0.28906-0.12207-0.29883-0.28076    l-0.09229-1.4585c-0.01074-0.16553,0.11523-0.30811,0.28027-0.31836c0.15576-0.02148,0.30811,0.11475,0.31836,0.28027    l0.09229,1.4585C15.93164,31.24764,15.80566,31.39022,15.64062,31.40048z M21.79297,29.23348    c0.06885-0.15039,0.24609-0.2168,0.39746-0.14941l1.37732,0.62439c0.17305,0.07845,0.37043,0.08375,0.54745,0.0147    l1.46927-0.57316c0.15332-0.06152,0.32861,0.01562,0.38818,0.17041c0.06055,0.1543-0.01562,0.32812-0.17041,0.38818    l-1.86377,0.72754c-0.03467,0.01367-0.07178,0.02051-0.10889,0.02051c-0.04248,0-0.08447-0.00879-0.12402-0.02637    l-1.76318-0.79932C21.7915,29.5621,21.72461,29.38436,21.79297,29.23348z M20.02441,34.7828    c-0.12305,0.11035-0.31299,0.1001-0.42334-0.0249c-0.11035-0.12354-0.09912-0.31348,0.0249-0.42334l0.6499-0.57764    c0.05664-0.05029,0.13379-0.07617,0.20605-0.07568l6.64893,0.15137c0.0708,0.00146,0.13867,0.02832,0.19189,0.0752l0.68848,0.6084    c0.12402,0.10938,0.13574,0.29932,0.02588,0.42334c-0.05908,0.06689-0.1416,0.10107-0.22462,0.10107    c-0.0708,0-0.1416-0.02441-0.19872-0.0752l-0.60645-0.53564l-6.4209-0.146L20.02441,34.7828z M22.32275,36.24618    c-0.16553-0.00781-0.29346-0.14795-0.28613-0.31348c0.00732-0.16504,0.1333-0.27393,0.31348-0.28613l2.87744,0.12988    c0.16553,0.00781,0.29346,0.14795,0.28613,0.31348c-0.00732,0.16064-0.14014,0.28613-0.2998,0.28613    c-0.00439,0-0.00879,0-0.01367,0L22.32275,36.24618z" style="fill:#303030;"/></g></g></svg>